<mxfile host="Electron" modified="2023-11-07T20:06:13.700Z" agent="Mozilla/5.0 (Windows NT 10.0; Win64; x64) AppleWebKit/537.36 (KHTML, like Gecko) draw.io/22.0.3 Chrome/114.0.5735.289 Electron/25.8.4 Safari/537.36" etag="M-9EhVEBimezBbAGVtNU" version="22.0.3" type="device">
  <diagram name="Page-1" id="ZY-ziPkChqjTqUsH5kNU">
    <mxGraphModel dx="830" dy="482" grid="1" gridSize="10" guides="1" tooltips="1" connect="1" arrows="1" fold="1" page="1" pageScale="1" pageWidth="827" pageHeight="1169" math="0" shadow="0">
      <root>
        <mxCell id="0" />
        <mxCell id="1" parent="0" />
        <mxCell id="80F1QADlnLDhOk_FnfgF-8" style="edgeStyle=orthogonalEdgeStyle;rounded=0;orthogonalLoop=1;jettySize=auto;html=1;entryX=0.5;entryY=0;entryDx=0;entryDy=0;" edge="1" parent="1" source="80F1QADlnLDhOk_FnfgF-1" target="80F1QADlnLDhOk_FnfgF-2">
          <mxGeometry relative="1" as="geometry" />
        </mxCell>
        <mxCell id="80F1QADlnLDhOk_FnfgF-1" value="" style="ellipse;whiteSpace=wrap;html=1;aspect=fixed;" vertex="1" parent="1">
          <mxGeometry x="320" y="160" width="80" height="80" as="geometry" />
        </mxCell>
        <mxCell id="80F1QADlnLDhOk_FnfgF-11" style="edgeStyle=orthogonalEdgeStyle;rounded=0;orthogonalLoop=1;jettySize=auto;html=1;entryX=0.5;entryY=0;entryDx=0;entryDy=0;" edge="1" parent="1" source="80F1QADlnLDhOk_FnfgF-2" target="80F1QADlnLDhOk_FnfgF-6">
          <mxGeometry relative="1" as="geometry" />
        </mxCell>
        <mxCell id="80F1QADlnLDhOk_FnfgF-2" value="" style="ellipse;whiteSpace=wrap;html=1;aspect=fixed;" vertex="1" parent="1">
          <mxGeometry x="320" y="280" width="80" height="80" as="geometry" />
        </mxCell>
        <mxCell id="80F1QADlnLDhOk_FnfgF-3" value="" style="ellipse;whiteSpace=wrap;html=1;aspect=fixed;" vertex="1" parent="1">
          <mxGeometry x="260" y="640" width="80" height="80" as="geometry" />
        </mxCell>
        <mxCell id="80F1QADlnLDhOk_FnfgF-24" style="edgeStyle=orthogonalEdgeStyle;rounded=0;orthogonalLoop=1;jettySize=auto;html=1;exitX=0.272;exitY=0.937;exitDx=0;exitDy=0;entryX=0.5;entryY=0;entryDx=0;entryDy=0;curved=1;exitPerimeter=0;" edge="1" parent="1" source="80F1QADlnLDhOk_FnfgF-4" target="80F1QADlnLDhOk_FnfgF-3">
          <mxGeometry relative="1" as="geometry" />
        </mxCell>
        <mxCell id="80F1QADlnLDhOk_FnfgF-25" style="edgeStyle=orthogonalEdgeStyle;rounded=0;orthogonalLoop=1;jettySize=auto;html=1;exitX=0;exitY=1;exitDx=0;exitDy=0;entryX=0.5;entryY=0;entryDx=0;entryDy=0;curved=1;" edge="1" parent="1" source="80F1QADlnLDhOk_FnfgF-4" target="80F1QADlnLDhOk_FnfgF-22">
          <mxGeometry relative="1" as="geometry" />
        </mxCell>
        <mxCell id="80F1QADlnLDhOk_FnfgF-26" style="edgeStyle=orthogonalEdgeStyle;rounded=0;orthogonalLoop=1;jettySize=auto;html=1;exitX=0.714;exitY=0.944;exitDx=0;exitDy=0;entryX=0.5;entryY=0;entryDx=0;entryDy=0;curved=1;exitPerimeter=0;" edge="1" parent="1" source="80F1QADlnLDhOk_FnfgF-4" target="80F1QADlnLDhOk_FnfgF-20">
          <mxGeometry relative="1" as="geometry" />
        </mxCell>
        <mxCell id="80F1QADlnLDhOk_FnfgF-27" style="edgeStyle=orthogonalEdgeStyle;rounded=0;orthogonalLoop=1;jettySize=auto;html=1;exitX=1;exitY=1;exitDx=0;exitDy=0;entryX=0.5;entryY=0;entryDx=0;entryDy=0;curved=1;" edge="1" parent="1" source="80F1QADlnLDhOk_FnfgF-4" target="80F1QADlnLDhOk_FnfgF-21">
          <mxGeometry relative="1" as="geometry" />
        </mxCell>
        <mxCell id="80F1QADlnLDhOk_FnfgF-4" value="" style="ellipse;whiteSpace=wrap;html=1;aspect=fixed;" vertex="1" parent="1">
          <mxGeometry x="320" y="520" width="80" height="80" as="geometry" />
        </mxCell>
        <mxCell id="80F1QADlnLDhOk_FnfgF-5" value="" style="ellipse;whiteSpace=wrap;html=1;aspect=fixed;" vertex="1" parent="1">
          <mxGeometry x="320" y="960" width="80" height="80" as="geometry" />
        </mxCell>
        <mxCell id="80F1QADlnLDhOk_FnfgF-16" style="edgeStyle=orthogonalEdgeStyle;rounded=0;orthogonalLoop=1;jettySize=auto;html=1;entryX=0.5;entryY=0;entryDx=0;entryDy=0;" edge="1" parent="1" source="80F1QADlnLDhOk_FnfgF-6" target="80F1QADlnLDhOk_FnfgF-4">
          <mxGeometry relative="1" as="geometry" />
        </mxCell>
        <mxCell id="80F1QADlnLDhOk_FnfgF-6" value="" style="ellipse;whiteSpace=wrap;html=1;aspect=fixed;" vertex="1" parent="1">
          <mxGeometry x="320" y="400" width="80" height="80" as="geometry" />
        </mxCell>
        <mxCell id="80F1QADlnLDhOk_FnfgF-7" value="data = get fifo&amp;nbsp;" style="text;html=1;strokeColor=none;fillColor=none;align=center;verticalAlign=middle;whiteSpace=wrap;rounded=0;" vertex="1" parent="1">
          <mxGeometry x="400" y="180" width="80" height="30" as="geometry" />
        </mxCell>
        <mxCell id="80F1QADlnLDhOk_FnfgF-9" value="data.confidence &amp;gt; confidence_threshold" style="text;html=1;align=center;verticalAlign=middle;resizable=0;points=[];autosize=1;strokeColor=none;fillColor=none;" vertex="1" parent="1">
          <mxGeometry x="350" y="240" width="240" height="30" as="geometry" />
        </mxCell>
        <mxCell id="80F1QADlnLDhOk_FnfgF-10" value="update slot array" style="text;html=1;strokeColor=none;fillColor=none;align=center;verticalAlign=middle;whiteSpace=wrap;rounded=0;" vertex="1" parent="1">
          <mxGeometry x="400" y="305" width="110" height="30" as="geometry" />
        </mxCell>
        <mxCell id="80F1QADlnLDhOk_FnfgF-14" value="1" style="text;html=1;align=center;verticalAlign=middle;resizable=0;points=[];autosize=1;strokeColor=none;fillColor=none;" vertex="1" parent="1">
          <mxGeometry x="352" y="360" width="30" height="30" as="geometry" />
        </mxCell>
        <mxCell id="80F1QADlnLDhOk_FnfgF-15" value="v1 = check validity cmd" style="text;html=1;strokeColor=none;fillColor=none;align=center;verticalAlign=middle;whiteSpace=wrap;rounded=0;" vertex="1" parent="1">
          <mxGeometry x="400" y="425" width="160" height="30" as="geometry" />
        </mxCell>
        <mxCell id="80F1QADlnLDhOk_FnfgF-17" value="v1 == POSSIBLE" style="text;html=1;align=center;verticalAlign=middle;resizable=0;points=[];autosize=1;strokeColor=none;fillColor=none;" vertex="1" parent="1">
          <mxGeometry x="365" y="480" width="120" height="30" as="geometry" />
        </mxCell>
        <mxCell id="80F1QADlnLDhOk_FnfgF-19" value="v2 = execute cmd" style="text;html=1;strokeColor=none;fillColor=none;align=center;verticalAlign=middle;whiteSpace=wrap;rounded=0;" vertex="1" parent="1">
          <mxGeometry x="380" y="545" width="140" height="30" as="geometry" />
        </mxCell>
        <mxCell id="80F1QADlnLDhOk_FnfgF-20" value="" style="ellipse;whiteSpace=wrap;html=1;aspect=fixed;" vertex="1" parent="1">
          <mxGeometry x="382" y="640" width="80" height="80" as="geometry" />
        </mxCell>
        <mxCell id="80F1QADlnLDhOk_FnfgF-21" value="" style="ellipse;whiteSpace=wrap;html=1;aspect=fixed;" vertex="1" parent="1">
          <mxGeometry x="500" y="640" width="80" height="80" as="geometry" />
        </mxCell>
        <mxCell id="80F1QADlnLDhOk_FnfgF-22" value="" style="ellipse;whiteSpace=wrap;html=1;aspect=fixed;" vertex="1" parent="1">
          <mxGeometry x="140" y="640" width="80" height="80" as="geometry" />
        </mxCell>
        <mxCell id="80F1QADlnLDhOk_FnfgF-28" value="v2 == IMPOSSIBLE" style="text;html=1;align=center;verticalAlign=middle;resizable=0;points=[];autosize=1;strokeColor=none;fillColor=none;rotation=-15;" vertex="1" parent="1">
          <mxGeometry x="150" y="575" width="130" height="30" as="geometry" />
        </mxCell>
        <mxCell id="80F1QADlnLDhOk_FnfgF-29" value="v2 == POSSIBLE" style="text;html=1;align=center;verticalAlign=middle;resizable=0;points=[];autosize=1;strokeColor=none;fillColor=none;rotation=0;" vertex="1" parent="1">
          <mxGeometry x="220" y="600" width="120" height="30" as="geometry" />
        </mxCell>
        <mxCell id="80F1QADlnLDhOk_FnfgF-30" value="v2 == SAFE" style="text;html=1;align=center;verticalAlign=middle;resizable=0;points=[];autosize=1;strokeColor=none;fillColor=none;rotation=0;" vertex="1" parent="1">
          <mxGeometry x="379" y="600" width="90" height="30" as="geometry" />
        </mxCell>
        <mxCell id="80F1QADlnLDhOk_FnfgF-31" value="v2 == QUIT" style="text;html=1;align=center;verticalAlign=middle;resizable=0;points=[];autosize=1;strokeColor=none;fillColor=none;rotation=30;" vertex="1" parent="1">
          <mxGeometry x="483" y="589" width="90" height="30" as="geometry" />
        </mxCell>
      </root>
    </mxGraphModel>
  </diagram>
</mxfile>
